HIERARCHY
ROOT Hips
{
 OFFSET 0.000000 0.000000 0.000000
 CHANNELS 6 Xposition Yposition Zposition Yrotation Xrotation Zrotation
 JOINT Chest
 {
  OFFSET 0.000000 14.067100 -0.020500
  CHANNELS 3 Yrotation Xrotation Zrotation
  JOINT Chest2
  {
   OFFSET 0.000000 9.717300 0.041800
   CHANNELS 3 Yrotation Xrotation Zrotation
   JOINT Chest3
   {
    OFFSET 0.000000 9.672600 0.000000
    CHANNELS 3 Yrotation Xrotation Zrotation
    JOINT Chest4
    {
     OFFSET 0.000000 9.662700 0.000000
     CHANNELS 3 Yrotation Xrotation Zrotation
     JOINT Neck
     {
      OFFSET 0.000000 14.815200 0.000000
      CHANNELS 3 Yrotation Xrotation Zrotation
      JOINT Head
      {
       OFFSET 0.000000 9.056800 0.088400
       CHANNELS 3 Yrotation Xrotation Zrotation
       End Site
       {
        OFFSET 0.000000 17.018200 0.046700
       }
      }
     }
     JOINT RightCollar
     {
      OFFSET -3.269500 9.872600 0.000000
      CHANNELS 3 Yrotation Xrotation Zrotation
      JOINT RightShoulder
      {
       OFFSET -15.850600 0.000000 0.000000
       CHANNELS 3 Yrotation Xrotation Zrotation
       JOINT RightElbow
       {
        OFFSET 0.000000 -29.117400 0.000000
        CHANNELS 3 Yrotation Xrotation Zrotation
        JOINT RightWrist
        {
         OFFSET 0.000000 -23.969300 0.014600
         CHANNELS 3 Yrotation Xrotation Zrotation
         End Site
         {
          OFFSET 0.000000 -18.039300 0.000000
         }
        }
       }
      }
     }
     JOINT LeftCollar
     {
      OFFSET 3.269500 9.872600 0.000000
      CHANNELS 3 Yrotation Xrotation Zrotation
      JOINT LeftShoulder
      {
       OFFSET 15.850600 0.000000 0.000000
       CHANNELS 3 Yrotation Xrotation Zrotation
       JOINT LeftElbow
       {
        OFFSET 0.000000 -29.117400 0.000000
        CHANNELS 3 Yrotation Xrotation Zrotation
        JOINT LeftWrist
        {
         OFFSET 0.000000 -23.969300 0.014600
         CHANNELS 3 Yrotation Xrotation Zrotation
         End Site
         {
          OFFSET 0.000000 -18.039300 0.000000
         }
        }
       }
      }
     }
    }
   }
  }
 }
 JOINT RightHip
 {
  OFFSET -11.600400 0.101300 0.010200
  CHANNELS 3 Yrotation Xrotation Zrotation
  JOINT RightKnee
  {
   OFFSET 0.000000 -45.913300 -0.001400
   CHANNELS 3 Yrotation Xrotation Zrotation
   JOINT RightAnkle
   {
    OFFSET 0.000000 -46.966900 0.018600
    CHANNELS 3 Yrotation Xrotation Zrotation
    JOINT RightToe
    {
     OFFSET 0.000000 -10.064300 17.850900
     CHANNELS 3 Yrotation Xrotation Zrotation
     End Site
     {
      OFFSET 0.000000 -1.607600 6.976100
     }
    }
    JOINT Prop1
    {
     OFFSET 11.600400 -10.064300 -0.027400
     CHANNELS 3 Yrotation Xrotation Zrotation
     End Site
     {
      OFFSET 0.000000 -186.853100 -0.156400
     }
    }
   }
  }
 }
 JOINT LeftHip
 {
  OFFSET 11.600400 0.101300 0.010200
  CHANNELS 3 Yrotation Xrotation Zrotation
  JOINT LeftKnee
  {
   OFFSET 0.000000 -45.913300 -0.001400
   CHANNELS 3 Yrotation Xrotation Zrotation
   JOINT LeftAnkle
   {
    OFFSET 0.000000 -46.966900 0.018600
    CHANNELS 3 Yrotation Xrotation Zrotation
    JOINT LeftToe
    {
     OFFSET 0.000000 -10.064300 17.850900
     CHANNELS 3 Yrotation Xrotation Zrotation
     End Site
     {
      OFFSET 0.000000 -1.607600 6.976100
     }
    }
   }
  }
 }
}
MOTION
Frames: 13
Frame Time: 0.008333
0.000000 102.636000 0.000000 0.000000 -5.767877 0.000000 0.000000 11.653817 0.000000 0.000000 -5.885947 0.000000 0.000000 -0.000000 0.000000 0.000000 -0.000000 0.000000 0.000000 12.528835 0.000000 0.000000 0.711642 0.000000 0.000000 -0.000000 0.000000 0.000000 0.000000 -90.000000 0.000000 -2.309062 0.000000 0.000000 2.309062 0.000000 0.000000 -0.000000 0.000000 0.000000 -0.000000 90.000000 0.000000 -2.309062 0.000000 0.000000 2.309062 0.000000 0.000000 8.520406 0.000000 0.000000 1.905762 0.000000 -0.000000 -4.658285 0.000000 0.000000 -0.000000 0.000000 1.887670 -5.403970 10.496660 0.000000 8.520406 0.000000 0.000000 1.905762 0.000000 -0.000000 -4.658285 0.000000 0.000000 -0.000000 0.000000
-270.530167 61.755769 -9.615813 175.638673 -30.124721 -0.707587 -1.923226 13.100632 1.430792 -1.105911 7.453935 1.270797 -1.353358 9.316438 1.539320 -1.110204 7.477431 1.279618 -0.228999 18.295428 -3.235479 0.582529 -1.603096 -5.766607 8.880340 4.163958 -5.284166 0.599535 -24.117803 -9.331247 32.419626 -53.209840 -20.518816 9.786786 8.681635 -33.029271 -0.794444 0.399859 -4.540130 4.341370 -27.405251 -3.371351 -58.147714 -32.917004 34.442986 -6.218510 13.352003 37.154357 20.863537 -52.328545 -28.872008 -105.914563 65.955953 -95.180068 5.217784 -4.376014 1.200614 0.236542 -0.737018 0.128441 180.000000 -0.000000 180.000000 -3.957847 -54.703483 9.111259 94.626879 81.907429 92.243940 -6.182569 -8.487826 0.202723 0.276484 0.630507 0.155996
-270.530538 61.754480 -9.616649 175.632881 -30.150965 -0.706779 -1.918676 13.118256 1.441548 -1.108460 7.463599 1.267081 -1.365637 9.346608 1.566976 -1.105310 7.459105 1.254156 -0.239167 18.339731 -3.214134 0.574277 -1.601054 -5.775297 8.881790 4.171352 -5.264680 0.606938 -24.138029 -9.369306 32.411924 -53.250157 -20.520299 9.804618 8.706292 -33.008012 -0.824845 0.444667 -4.526069 4.374561 -27.460398 -3.384874 -58.147807 -32.932305 34.448392 -6.237815 13.359446 37.160785 20.847205 -52.311470 -28.848853 -105.917639 65.962079 -95.183977 5.203478 -4.371770 1.193229 0.245700 -0.743982 0.130052 180.000000 -0.000000 180.000000 -3.944086 -54.679154 9.110939 94.663014 81.911578 92.278728 -6.182253 -8.493446 0.212821 0.272284 0.632389 0.152297
-270.530874 61.753261 -9.617967 175.631787 -30.184571 -0.707872 -1.923024 13.136260 1.454974 -1.107589 7.480834 1.258243 -1.371783 9.360835 1.577740 -1.104872 7.458065 1.246248 -0.251033 18.386239 -3.193976 0.544464 -1.512388 -5.743210 8.879965 4.194822 -5.209846 0.638042 -24.174871 -9.445343 32.406880 -53.325052 -20.537099 9.821085 8.745624 -32.978641 -0.839130 0.461106 -4.525299 4.386076 -27.487844 -3.380111 -58.137290 -32.948891 34.447261 -6.233557 13.359915 37.163494 20.814873 -52.298036 -28.811317 -105.920581 65.957521 -95.204746 5.195975 -4.356022 1.191885 0.254388 -0.757560 0.133119 180.000000 -0.000000 180.000000 -3.918232 -54.653018 9.097494 94.707204 81.915953 92.332555 -6.183617 -8.488931 0.218573 0.252851 0.625444 0.150432
-270.532746 61.751067 -9.617998 175.634649 -30.216166 -0.704507 -1.931231 13.155936 1.456190 -1.117424 7.493832 1.273785 -1.372640 9.374565 1.569731 -1.114035 7.490049 1.265434 -0.258544 18.398918 -3.206449 0.513264 -1.421878 -5.710983 8.891975 4.174727 -5.223608 0.640459 -24.192270 -9.482457 32.405257 -53.369344 -20.536671 9.798124 8.733846 -32.996412 -0.842198 0.447839 -4.551441 4.371480 -27.504915 -3.307188 -58.094324 -33.028787 34.431082 -6.209186 13.361535 37.176949 20.799579 -52.271314 -28.795174 -105.922015 65.955705 -95.210573 5.192599 -4.359492 1.191917 0.260988 -0.752816 0.136148 180.000000 -0.000000 180.000000 -3.895271 -54.625233 9.078976 94.722706 81.921064 92.341627 -6.165821 -8.488712 0.238637 0.254529 0.624868 0.142255
-270.532368 61.748167 -9.616776 175.632443 -30.246797 -0.707592 -1.933225 13.173982 1.466833 -1.122949 7.507356 1.276990 -1.378840 9.391231 1.574366 -1.121836 7.510048 1.275386 -0.275805 18.467684 -3.182210 0.502102 -1.410579 -5.725372 8.908124 4.165375 -5.227970 0.639062 -24.216257 -9.519249 32.397967 -53.412599 -20.531122 9.798566 8.737940 -32.997863 -0.842765 0.448665 -4.566637 4.377677 -27.530930 -3.282645 -58.074805 -33.077069 34.429506 -6.204006 13.357056 37.174644 20.777905 -52.249114 -28.765765 -105.917120 65.955758 -95.207146 5.190253 -4.357442 1.186700 0.265631 -0.751201 0.139709 180.000000 -0.000000 180.000000 -3.881089 -54.597787 9.075983 94.742307 81.928680 92.362077 -6.151480 -8.495151 0.245290 0.244109 0.630170 0.141776
-270.531004 61.746009 -9.616974 175.639496 -30.287612 -0.718636 -1.938820 13.211749 1.474935 -1.131266 7.511913 1.286154 -1.383043 9.405695 1.574391 -1.130473 7.528990 1.284065 -0.287800 18.511037 -3.168081 0.487444 -1.374066 -5.720887 8.925069 4.159228 -5.227247 0.627983 -24.243927 -9.547638 32.405981 -53.455512 -20.534570 9.795451 8.741195 -32.996472 -0.833673 0.434343 -4.583060 4.365767 -27.539360 -3.247809 -58.074323 -33.129829 34.448747 -6.193831 13.368556 37.163735 20.729025 -52.227695 -28.708408 -105.924189 65.955213 -95.220993 5.153560 -4.355354 1.165973 0.292006 -0.754806 0.155773 180.000000 -0.000000 180.000000 -3.878423 -54.560768 9.078007 94.767048 81.937949 92.390107 -6.142787 -8.500736 0.253740 0.238542 0.634488 0.138250
-270.530521 61.744111 -9.618086 175.651567 -30.334791 -0.728352 -1.954099 13.248015 1.481814 -1.134536 7.522665 1.292303 -1.381555 9.411846 1.564669 -1.145580 7.559034 1.304194 -0.296708 18.537835 -3.162481 0.468245 -1.324897 -5.707133 8.942378 4.140311 -5.245158 0.616330 -24.255522 -9.564840 32.408802 -53.494487 -20.532082 9.785279 8.736012 -33.001293 -0.825138 0.419744 -4.601795 4.351120 -27.549550 -3.214230 -58.049982 -33.164668 34.445456 -6.192548 13.363163 37.168568 20.689737 -52.187762 -28.670285 -105.935240 65.956493 -95.232307 5.144751 -4.360304 1.162270 0.296280 -0.753552 0.159155 180.000000 -0.000000 180.000000 -3.874364 -54.517777 9.070565 94.786316 81.942731 92.415192 -6.138050 -8.504151 0.256028 0.243380 0.636445 0.138785
-270.531196 61.740447 -9.616833 175.659844 -30.372257 -0.732332 -1.964046 13.249696 1.498141 -1.142358 7.558971 1.287677 -1.389837 9.427104 1.566623 -1.154083 7.584394 1.312390 -0.305337 18.561824 -3.157958 0.449993 -1.280811 -5.695522 8.961020 4.115971 -5.268815 0.585582 -24.271283 -9.573309 32.429413 -53.510420 -20.522258 9.777594 8.729307 -33.007502 -0.826355 0.422016 -4.609232 4.348983 -27.579886 -3.198664 -58.037336 -33.204424 34.450976 -6.190769 13.370556 37.173643 20.661901 -52.155546 -28.643473 -105.940787 65.955504 -95.240158 5.143532 -4.372507 1.161470 0.297200 -0.743354 0.160534 180.000000 -0.000000 180.000000 -3.867032 -54.484270 9.061279 94.805048 81.955189 92.434999 -6.129605 -8.510971 0.265048 0.238152 0.642659 0.135019
-270.532517 61.736834 -9.616396 175.667780 -30.414716 -0.733428 -1.973116 13.276089 1.504544 -1.150300 7.579204 1.291976 -1.414127 9.477783 1.594421 -1.150345 7.579222 1.291997 -0.303530 18.545976 -3.172017 0.434517 -1.233528 -5.676901 8.981243 4.097944 -5.279206 0.574430 -24.300610 -9.601932 32.435724 -53.560082 -20.530343 9.789461 8.753261 -32.991646 -0.849003 0.454258 -4.604955 4.369430 -27.646024 -3.196107 -58.028324 -33.245243 34.467077 -6.189837 13.377758 37.174005 20.628859 -52.123408 -28.613312 -105.949104 65.953304 -95.257498 5.140935 -4.381388 1.159786 0.299873 -0.737433 0.162315 180.000000 -0.000000 180.000000 -3.862092 -54.444154 9.051368 94.828982 81.959420 92.451348 -6.120365 -8.520397 0.282380 0.227907 0.650439 0.126746
-270.534094 61.734842 -9.619362 175.681000 -30.474329 -0.735125 -1.986440 13.327946 1.503069 -1.157114 7.593063 1.301063 -1.424439 9.505061 1.598578 -1.158679 7.600970 1.295484 -0.312132 18.581753 -3.157581 0.443197 -1.297912 -5.714995 9.000515 4.073071 -5.282125 0.570972 -24.326503 -9.637139 32.462903 -53.671571 -20.567686 9.802155 8.819976 -32.976215 -0.860536 0.464557 -4.608237 4.392822 -27.703089 -3.203542 -58.045995 -33.267543 34.486620 -6.186420 13.389156 37.177340 20.588370 -52.074559 -28.583674 -105.971953 65.953540 -95.287996 5.143447 -4.383499 1.157856 0.299392 -0.742518 0.162768 180.000000 -0.000000 180.000000 -3.839622 -54.391898 9.024539 94.873878 81.962439 92.501777 -6.124585 -8.518813 0.295476 0.221813 0.645295 0.122334
-270.535609 61.732195 -9.621742 175.690647 -30.532705 -0.735203 -1.996890 13.378741 1.501793 -1.161713 7.606011 1.308653 -1.435519 9.533422 1.602455 -1.167698 7.623577 1.298744 -0.318558 18.617418 -3.142124 0.422892 -1.205460 -5.673778 9.017614 4.051791 -5.281452 0.570692 -24.358356 -9.676191 32.480331 -53.716338 -20.580442 9.789806 8.822697 -32.976967 -0.858949 0.449620 -4.617667 4.400605 -27.735500 -3.198175 -58.065876 -33.289270 34.514935 -6.181094 13.402668 37.170522 20.539070 -52.029939 -28.554368 -105.990996 65.959512 -95.318673 5.159088 -4.384796 1.155926 0.290495 -0.747653 0.158804 180.000000 -0.000000 180.000000 -3.788882 -54.344361 8.983991 94.918685 81.966078 92.563454 -6.135561 -8.515317 0.307893 0.223155 0.638610 0.122683
-270.538571 61.732543 -9.629644 175.719860 -30.618293 -0.737253 -2.019571 13.447065 1.496139 -1.174054 7.626647 1.313033 -1.447414 9.562279 1.607108 -1.177366 7.646605 1.302684 -0.318969 18.636329 -3.135437 0.414774 -1.144027 -5.648006 9.034529 4.071004 -5.238409 0.593055 -24.431485 -9.769220 32.483447 -53.733001 -20.572986 9.773026 8.803049 -32.999737 -0.864627 0.447722 -4.624250 4.405015 -27.769773 -3.173727 -58.112122 -33.328858 34.574950 -6.137998 13.432806 37.147738 20.471794 -51.950272 -28.521160 -106.005348 65.959591 -95.341187 5.170691 -4.381536 1.146054 0.295569 -0.760093 0.164412 180.000000 -0.000000 180.000000 -3.780169 -54.260252 8.949356 94.924780 81.943119 92.563844 -6.151211 -8.511768 0.319598 0.212613 0.633377 0.119585
